<?xml version="1.0" standalone="no"?>
<!DOCTYPE svg PUBLIC "-//W3C//DTD SVG 20010904//EN"
 "http://www.w3.org/TR/2001/REC-SVG-20010904/DTD/svg10.dtd">
<svg version="1.0" xmlns="http://www.w3.org/2000/svg"
 width="512.000000pt" height="512.000000pt" viewBox="0 0 512.000000 512.000000"
 preserveAspectRatio="xMidYMid meet">
<metadata>
Created by potrace 1.14, written by Peter Selinger 2001-2017
</metadata>
<g transform="translate(0.000000,512.000000) scale(0.100000,-0.100000)"
fill="#000000" stroke="none">
<path d="M570 3632 c-36 -2 -69 -7 -74 -12 -9 -9 -12 -1848 -2 -1857 3 -3 58
-6 122 -6 84 0 118 3 124 13 4 7 8 190 8 407 0 217 3 397 5 400 9 8 389 5 397
-3 4 -5 36 -70 70 -144 77 -166 113 -242 182 -390 30 -63 72 -152 93 -197 27
-58 44 -83 57 -84 10 0 56 -1 103 -1 145 0 138 -1 131 26 -6 23 -64 146 -272
574 -57 117 -104 219 -106 228 -2 11 13 22 52 36 246 92 362 341 296 637 -3
14 -21 57 -39 96 -65 136 -204 238 -359 265 -61 11 -630 19 -788 12z m739
-242 c140 -47 214 -161 204 -317 -7 -116 -68 -210 -166 -254 -50 -23 -63 -24
-324 -27 l-273 -3 -1 58 c-2 199 1 545 6 552 3 5 117 9 254 9 207 -1 258 -4
300 -18z"/>
<path d="M2163 3632 c-31 -3 -33 -6 -34 -40 -3 -242 1 -1825 5 -1829 7 -8
1202 -10 1223 -2 13 4 16 22 15 109 -1 57 -4 105 -7 108 -2 3 -223 5 -490 5
l-485 0 -1 41 c0 33 0 371 1 527 l0 36 409 0 c225 1 414 4 419 7 12 7 12 205
0 212 -5 4 -194 6 -419 6 l-409 -1 -1 47 c-2 160 2 535 6 542 3 4 221 8 485 8
265 0 483 2 486 5 6 6 6 208 0 214 -5 5 -1156 9 -1203 5z"/>
<path d="M4157 3570 c-231 -58 -352 -314 -248 -524 49 -101 159 -188 255 -204
241 -38 438 115 450 351 11 198 -147 373 -346 383 -40 1 -90 -1 -111 -6z"/>
<path d="M4145 2486 c-140 -44 -239 -151 -266 -286 -35 -179 62 -355 233 -422
67 -26 183 -28 253 -4 249 84 331 407 154 601 -72 78 -156 118 -257 121 -42 1
-95 -3 -117 -10z m196 -168 c132 -68 156 -251 46 -350 -137 -124 -357 -27
-357 157 0 85 48 160 125 196 50 24 136 23 186 -3z"/>
</g>
</svg>
